<mxfile host="app.diagrams.net" agent="Mozilla/5.0 (Windows NT 10.0; Win64; x64) AppleWebKit/537.36 (KHTML, like Gecko) Chrome/130.0.0.0 Safari/537.36" version="24.8.2">
  <diagram name="Страница — 1" id="Fxi8fru_wR9sjYaKYV2b">
    <mxGraphModel dx="2062" dy="624" grid="1" gridSize="10" guides="1" tooltips="1" connect="1" arrows="1" fold="1" page="1" pageScale="1" pageWidth="827" pageHeight="1169" math="0" shadow="0">
      <root>
        <mxCell id="0" />
        <mxCell id="1" parent="0" />
        <mxCell id="ETCH5vV9gQc0kuzcNDE6-1" value="Тренер" style="shape=umlActor;verticalLabelPosition=bottom;verticalAlign=top;html=1;outlineConnect=0;" vertex="1" parent="1">
          <mxGeometry x="70" y="270" width="30" height="60" as="geometry" />
        </mxCell>
        <mxCell id="ETCH5vV9gQc0kuzcNDE6-2" value="Спортсмен" style="shape=umlActor;verticalLabelPosition=bottom;verticalAlign=top;html=1;outlineConnect=0;" vertex="1" parent="1">
          <mxGeometry x="680" y="270" width="30" height="60" as="geometry" />
        </mxCell>
        <mxCell id="ETCH5vV9gQc0kuzcNDE6-5" value="Изменить имя" style="rounded=1;whiteSpace=wrap;html=1;" vertex="1" parent="1">
          <mxGeometry x="180" y="550" width="90" height="50" as="geometry" />
        </mxCell>
        <mxCell id="ETCH5vV9gQc0kuzcNDE6-6" value="Редактировать профиль" style="rounded=1;whiteSpace=wrap;html=1;" vertex="1" parent="1">
          <mxGeometry x="60" y="400" width="90" height="50" as="geometry" />
        </mxCell>
        <mxCell id="ETCH5vV9gQc0kuzcNDE6-7" value="Изменить информацию об индивидуальных достижениях" style="rounded=1;whiteSpace=wrap;html=1;" vertex="1" parent="1">
          <mxGeometry x="50" y="560" width="110" height="70" as="geometry" />
        </mxCell>
        <mxCell id="ETCH5vV9gQc0kuzcNDE6-8" value="Изменить контакты" style="rounded=1;whiteSpace=wrap;html=1;" vertex="1" parent="1">
          <mxGeometry x="230" y="480" width="90" height="50" as="geometry" />
        </mxCell>
        <mxCell id="ETCH5vV9gQc0kuzcNDE6-11" value="" style="endArrow=none;html=1;rounded=0;" edge="1" parent="1" source="ETCH5vV9gQc0kuzcNDE6-1" target="ETCH5vV9gQc0kuzcNDE6-6">
          <mxGeometry width="50" height="50" relative="1" as="geometry">
            <mxPoint x="390" y="500" as="sourcePoint" />
            <mxPoint x="440" y="450" as="targetPoint" />
          </mxGeometry>
        </mxCell>
        <mxCell id="ETCH5vV9gQc0kuzcNDE6-12" value="" style="endArrow=classic;html=1;rounded=0;startArrow=none;startFill=0;endFill=1;dashed=1;" edge="1" parent="1" source="ETCH5vV9gQc0kuzcNDE6-7" target="ETCH5vV9gQc0kuzcNDE6-6">
          <mxGeometry width="50" height="50" relative="1" as="geometry">
            <mxPoint x="30" y="295" as="sourcePoint" />
            <mxPoint x="150" y="490" as="targetPoint" />
          </mxGeometry>
        </mxCell>
        <mxCell id="ETCH5vV9gQc0kuzcNDE6-18" value="extend" style="edgeLabel;html=1;align=center;verticalAlign=middle;resizable=0;points=[];" vertex="1" connectable="0" parent="ETCH5vV9gQc0kuzcNDE6-12">
          <mxGeometry x="-0.0327" y="3" relative="1" as="geometry">
            <mxPoint as="offset" />
          </mxGeometry>
        </mxCell>
        <mxCell id="ETCH5vV9gQc0kuzcNDE6-13" value="" style="endArrow=classic;html=1;rounded=0;endFill=1;dashed=1;" edge="1" parent="1" source="ETCH5vV9gQc0kuzcNDE6-5" target="ETCH5vV9gQc0kuzcNDE6-6">
          <mxGeometry width="50" height="50" relative="1" as="geometry">
            <mxPoint x="40" y="305" as="sourcePoint" />
            <mxPoint x="110" y="420" as="targetPoint" />
          </mxGeometry>
        </mxCell>
        <mxCell id="ETCH5vV9gQc0kuzcNDE6-19" value="extend" style="edgeLabel;html=1;align=center;verticalAlign=middle;resizable=0;points=[];" vertex="1" connectable="0" parent="ETCH5vV9gQc0kuzcNDE6-13">
          <mxGeometry x="0.0883" relative="1" as="geometry">
            <mxPoint as="offset" />
          </mxGeometry>
        </mxCell>
        <mxCell id="ETCH5vV9gQc0kuzcNDE6-14" value="" style="endArrow=classic;html=1;rounded=0;endFill=1;dashed=1;" edge="1" parent="1" source="ETCH5vV9gQc0kuzcNDE6-8" target="ETCH5vV9gQc0kuzcNDE6-6">
          <mxGeometry width="50" height="50" relative="1" as="geometry">
            <mxPoint x="50" y="315" as="sourcePoint" />
            <mxPoint x="120" y="430" as="targetPoint" />
          </mxGeometry>
        </mxCell>
        <mxCell id="ETCH5vV9gQc0kuzcNDE6-20" value="extend" style="edgeLabel;html=1;align=center;verticalAlign=middle;resizable=0;points=[];" vertex="1" connectable="0" parent="ETCH5vV9gQc0kuzcNDE6-14">
          <mxGeometry x="-0.084" y="-2" relative="1" as="geometry">
            <mxPoint as="offset" />
          </mxGeometry>
        </mxCell>
        <mxCell id="ETCH5vV9gQc0kuzcNDE6-15" value="Изменить физические данные (пол, возраст, рост, вес)" style="rounded=1;whiteSpace=wrap;html=1;" vertex="1" parent="1">
          <mxGeometry x="-90" y="560" width="120" height="70" as="geometry" />
        </mxCell>
        <mxCell id="ETCH5vV9gQc0kuzcNDE6-16" value="" style="endArrow=classic;html=1;rounded=0;startArrow=none;startFill=0;endFill=1;entryX=0.25;entryY=1;entryDx=0;entryDy=0;dashed=1;" edge="1" parent="1" source="ETCH5vV9gQc0kuzcNDE6-15" target="ETCH5vV9gQc0kuzcNDE6-6">
          <mxGeometry width="50" height="50" relative="1" as="geometry">
            <mxPoint x="115" y="570" as="sourcePoint" />
            <mxPoint x="115" y="460" as="targetPoint" />
          </mxGeometry>
        </mxCell>
        <mxCell id="ETCH5vV9gQc0kuzcNDE6-17" value="extend" style="edgeLabel;html=1;align=center;verticalAlign=middle;resizable=0;points=[];" vertex="1" connectable="0" parent="ETCH5vV9gQc0kuzcNDE6-16">
          <mxGeometry x="-0.0549" relative="1" as="geometry">
            <mxPoint as="offset" />
          </mxGeometry>
        </mxCell>
        <mxCell id="ETCH5vV9gQc0kuzcNDE6-21" value="внести результаты своих тренировок" style="rounded=1;whiteSpace=wrap;html=1;" vertex="1" parent="1">
          <mxGeometry x="400" y="530" width="100" height="50" as="geometry" />
        </mxCell>
        <mxCell id="ETCH5vV9gQc0kuzcNDE6-24" value="" style="endArrow=none;html=1;rounded=0;" edge="1" parent="1" source="ETCH5vV9gQc0kuzcNDE6-1" target="ETCH5vV9gQc0kuzcNDE6-21">
          <mxGeometry width="50" height="50" relative="1" as="geometry">
            <mxPoint x="110" y="335" as="sourcePoint" />
            <mxPoint x="180" y="450" as="targetPoint" />
          </mxGeometry>
        </mxCell>
        <mxCell id="ETCH5vV9gQc0kuzcNDE6-25" value="" style="endArrow=none;html=1;rounded=0;" edge="1" parent="1" source="ETCH5vV9gQc0kuzcNDE6-21" target="ETCH5vV9gQc0kuzcNDE6-2">
          <mxGeometry width="50" height="50" relative="1" as="geometry">
            <mxPoint x="120" y="345" as="sourcePoint" />
            <mxPoint x="190" y="460" as="targetPoint" />
          </mxGeometry>
        </mxCell>
        <mxCell id="ETCH5vV9gQc0kuzcNDE6-26" value="выбрать упражнение" style="rounded=1;whiteSpace=wrap;html=1;" vertex="1" parent="1">
          <mxGeometry x="314" y="620" width="100" height="50" as="geometry" />
        </mxCell>
        <mxCell id="ETCH5vV9gQc0kuzcNDE6-27" value="внести результат выполнения" style="rounded=1;whiteSpace=wrap;html=1;" vertex="1" parent="1">
          <mxGeometry x="460" y="620" width="100" height="50" as="geometry" />
        </mxCell>
        <mxCell id="ETCH5vV9gQc0kuzcNDE6-29" value="" style="endArrow=none;html=1;rounded=0;endFill=0;startArrow=classic;startFill=1;dashed=1;dashPattern=8 8;" edge="1" parent="1" source="ETCH5vV9gQc0kuzcNDE6-26" target="ETCH5vV9gQc0kuzcNDE6-21">
          <mxGeometry width="50" height="50" relative="1" as="geometry">
            <mxPoint x="392" y="620" as="sourcePoint" />
            <mxPoint x="590" y="550" as="targetPoint" />
          </mxGeometry>
        </mxCell>
        <mxCell id="ETCH5vV9gQc0kuzcNDE6-30" value="include" style="edgeLabel;html=1;align=center;verticalAlign=middle;resizable=0;points=[];" vertex="1" connectable="0" parent="ETCH5vV9gQc0kuzcNDE6-29">
          <mxGeometry x="0.0883" relative="1" as="geometry">
            <mxPoint as="offset" />
          </mxGeometry>
        </mxCell>
        <mxCell id="ETCH5vV9gQc0kuzcNDE6-31" value="" style="endArrow=none;html=1;rounded=0;endFill=0;startArrow=classic;startFill=1;dashed=1;dashPattern=8 8;" edge="1" parent="1" source="ETCH5vV9gQc0kuzcNDE6-27" target="ETCH5vV9gQc0kuzcNDE6-21">
          <mxGeometry width="50" height="50" relative="1" as="geometry">
            <mxPoint x="402" y="630" as="sourcePoint" />
            <mxPoint x="438" y="590" as="targetPoint" />
          </mxGeometry>
        </mxCell>
        <mxCell id="ETCH5vV9gQc0kuzcNDE6-32" value="include" style="edgeLabel;html=1;align=center;verticalAlign=middle;resizable=0;points=[];" vertex="1" connectable="0" parent="ETCH5vV9gQc0kuzcNDE6-31">
          <mxGeometry x="0.0883" relative="1" as="geometry">
            <mxPoint as="offset" />
          </mxGeometry>
        </mxCell>
        <mxCell id="ETCH5vV9gQc0kuzcNDE6-33" value="Изменить имя" style="rounded=1;whiteSpace=wrap;html=1;" vertex="1" parent="1">
          <mxGeometry x="850" y="560" width="90" height="50" as="geometry" />
        </mxCell>
        <mxCell id="ETCH5vV9gQc0kuzcNDE6-34" value="Редактировать профиль" style="rounded=1;whiteSpace=wrap;html=1;" vertex="1" parent="1">
          <mxGeometry x="730" y="410" width="90" height="50" as="geometry" />
        </mxCell>
        <mxCell id="ETCH5vV9gQc0kuzcNDE6-36" value="Изменить контакты" style="rounded=1;whiteSpace=wrap;html=1;" vertex="1" parent="1">
          <mxGeometry x="730" y="585" width="90" height="50" as="geometry" />
        </mxCell>
        <mxCell id="ETCH5vV9gQc0kuzcNDE6-39" value="" style="endArrow=classic;html=1;rounded=0;endFill=1;dashed=1;" edge="1" parent="1" source="ETCH5vV9gQc0kuzcNDE6-33" target="ETCH5vV9gQc0kuzcNDE6-34">
          <mxGeometry width="50" height="50" relative="1" as="geometry">
            <mxPoint x="710" y="315" as="sourcePoint" />
            <mxPoint x="780" y="430" as="targetPoint" />
          </mxGeometry>
        </mxCell>
        <mxCell id="ETCH5vV9gQc0kuzcNDE6-40" value="extend" style="edgeLabel;html=1;align=center;verticalAlign=middle;resizable=0;points=[];" vertex="1" connectable="0" parent="ETCH5vV9gQc0kuzcNDE6-39">
          <mxGeometry x="0.0883" relative="1" as="geometry">
            <mxPoint as="offset" />
          </mxGeometry>
        </mxCell>
        <mxCell id="ETCH5vV9gQc0kuzcNDE6-42" value="Изменить физические данные (пол, возраст, рост, вес)" style="rounded=1;whiteSpace=wrap;html=1;" vertex="1" parent="1">
          <mxGeometry x="580" y="570" width="120" height="70" as="geometry" />
        </mxCell>
        <mxCell id="ETCH5vV9gQc0kuzcNDE6-43" value="" style="endArrow=classic;html=1;rounded=0;startArrow=none;startFill=0;endFill=1;entryX=0.25;entryY=1;entryDx=0;entryDy=0;dashed=1;" edge="1" parent="1" source="ETCH5vV9gQc0kuzcNDE6-42" target="ETCH5vV9gQc0kuzcNDE6-34">
          <mxGeometry width="50" height="50" relative="1" as="geometry">
            <mxPoint x="785" y="580" as="sourcePoint" />
            <mxPoint x="785" y="470" as="targetPoint" />
          </mxGeometry>
        </mxCell>
        <mxCell id="ETCH5vV9gQc0kuzcNDE6-44" value="extend" style="edgeLabel;html=1;align=center;verticalAlign=middle;resizable=0;points=[];" vertex="1" connectable="0" parent="ETCH5vV9gQc0kuzcNDE6-43">
          <mxGeometry x="-0.0549" relative="1" as="geometry">
            <mxPoint as="offset" />
          </mxGeometry>
        </mxCell>
        <mxCell id="ETCH5vV9gQc0kuzcNDE6-45" value="" style="endArrow=classic;html=1;rounded=0;startArrow=none;startFill=0;endFill=1;dashed=1;" edge="1" parent="1" source="ETCH5vV9gQc0kuzcNDE6-36" target="ETCH5vV9gQc0kuzcNDE6-34">
          <mxGeometry width="50" height="50" relative="1" as="geometry">
            <mxPoint x="677" y="580" as="sourcePoint" />
            <mxPoint x="763" y="470" as="targetPoint" />
          </mxGeometry>
        </mxCell>
        <mxCell id="ETCH5vV9gQc0kuzcNDE6-46" value="extend" style="edgeLabel;html=1;align=center;verticalAlign=middle;resizable=0;points=[];" vertex="1" connectable="0" parent="ETCH5vV9gQc0kuzcNDE6-45">
          <mxGeometry x="-0.0549" relative="1" as="geometry">
            <mxPoint as="offset" />
          </mxGeometry>
        </mxCell>
        <mxCell id="ETCH5vV9gQc0kuzcNDE6-47" value="Просмотреть тренировочные программы и советы" style="rounded=1;whiteSpace=wrap;html=1;" vertex="1" parent="1">
          <mxGeometry x="390" y="440" width="110" height="60" as="geometry" />
        </mxCell>
        <mxCell id="ETCH5vV9gQc0kuzcNDE6-48" value="Просмотреть профили&amp;nbsp; других спортсменов или тренеров" style="rounded=1;whiteSpace=wrap;html=1;" vertex="1" parent="1">
          <mxGeometry x="390" y="360" width="110" height="60" as="geometry" />
        </mxCell>
        <mxCell id="ETCH5vV9gQc0kuzcNDE6-49" value="войти в систему как тренер" style="rounded=1;whiteSpace=wrap;html=1;" vertex="1" parent="1">
          <mxGeometry x="300" y="290" width="110" height="60" as="geometry" />
        </mxCell>
        <mxCell id="ETCH5vV9gQc0kuzcNDE6-50" value="войти в систему как спортсмен" style="rounded=1;whiteSpace=wrap;html=1;" vertex="1" parent="1">
          <mxGeometry x="440" y="290" width="110" height="60" as="geometry" />
        </mxCell>
        <mxCell id="ETCH5vV9gQc0kuzcNDE6-51" value="оценить программу или советы" style="rounded=1;whiteSpace=wrap;html=1;" vertex="1" parent="1">
          <mxGeometry x="600" y="405" width="110" height="60" as="geometry" />
        </mxCell>
        <mxCell id="ETCH5vV9gQc0kuzcNDE6-52" value="" style="endArrow=none;html=1;rounded=0;" edge="1" parent="1" source="ETCH5vV9gQc0kuzcNDE6-1" target="ETCH5vV9gQc0kuzcNDE6-49">
          <mxGeometry width="50" height="50" relative="1" as="geometry">
            <mxPoint x="110" y="320" as="sourcePoint" />
            <mxPoint x="424" y="540" as="targetPoint" />
          </mxGeometry>
        </mxCell>
        <mxCell id="ETCH5vV9gQc0kuzcNDE6-53" value="" style="endArrow=none;html=1;rounded=0;" edge="1" parent="1" source="ETCH5vV9gQc0kuzcNDE6-50" target="ETCH5vV9gQc0kuzcNDE6-2">
          <mxGeometry width="50" height="50" relative="1" as="geometry">
            <mxPoint x="110" y="311" as="sourcePoint" />
            <mxPoint x="280" y="325" as="targetPoint" />
          </mxGeometry>
        </mxCell>
        <mxCell id="ETCH5vV9gQc0kuzcNDE6-54" value="" style="endArrow=classic;html=1;rounded=0;startArrow=none;startFill=0;endFill=1;dashed=1;" edge="1" parent="1" source="ETCH5vV9gQc0kuzcNDE6-51" target="ETCH5vV9gQc0kuzcNDE6-47">
          <mxGeometry width="50" height="50" relative="1" as="geometry">
            <mxPoint x="677" y="580" as="sourcePoint" />
            <mxPoint x="763" y="470" as="targetPoint" />
          </mxGeometry>
        </mxCell>
        <mxCell id="ETCH5vV9gQc0kuzcNDE6-55" value="extend" style="edgeLabel;html=1;align=center;verticalAlign=middle;resizable=0;points=[];" vertex="1" connectable="0" parent="ETCH5vV9gQc0kuzcNDE6-54">
          <mxGeometry x="-0.0549" relative="1" as="geometry">
            <mxPoint as="offset" />
          </mxGeometry>
        </mxCell>
        <mxCell id="ETCH5vV9gQc0kuzcNDE6-56" value="" style="endArrow=none;html=1;rounded=0;" edge="1" parent="1" source="ETCH5vV9gQc0kuzcNDE6-47" target="ETCH5vV9gQc0kuzcNDE6-2">
          <mxGeometry width="50" height="50" relative="1" as="geometry">
            <mxPoint x="484" y="540" as="sourcePoint" />
            <mxPoint x="690" y="326" as="targetPoint" />
          </mxGeometry>
        </mxCell>
        <mxCell id="ETCH5vV9gQc0kuzcNDE6-57" value="" style="endArrow=none;html=1;rounded=0;" edge="1" parent="1" source="ETCH5vV9gQc0kuzcNDE6-34" target="ETCH5vV9gQc0kuzcNDE6-2">
          <mxGeometry width="50" height="50" relative="1" as="geometry">
            <mxPoint x="499" y="450" as="sourcePoint" />
            <mxPoint x="690" y="320" as="targetPoint" />
          </mxGeometry>
        </mxCell>
        <mxCell id="ETCH5vV9gQc0kuzcNDE6-58" value="Выложить тренировочную программу или советы" style="rounded=1;whiteSpace=wrap;html=1;" vertex="1" parent="1">
          <mxGeometry x="270" y="380" width="110" height="60" as="geometry" />
        </mxCell>
        <mxCell id="ETCH5vV9gQc0kuzcNDE6-59" value="" style="endArrow=none;html=1;rounded=0;" edge="1" parent="1" source="ETCH5vV9gQc0kuzcNDE6-1" target="ETCH5vV9gQc0kuzcNDE6-58">
          <mxGeometry width="50" height="50" relative="1" as="geometry">
            <mxPoint x="100" y="340" as="sourcePoint" />
            <mxPoint x="111" y="410" as="targetPoint" />
          </mxGeometry>
        </mxCell>
        <mxCell id="ETCH5vV9gQc0kuzcNDE6-60" value="зарегистрироваться как тренер" style="rounded=1;whiteSpace=wrap;html=1;" vertex="1" parent="1">
          <mxGeometry x="330" y="220" width="116" height="60" as="geometry" />
        </mxCell>
        <mxCell id="ETCH5vV9gQc0kuzcNDE6-61" value="зарегистрироваться как спортсмен" style="rounded=1;whiteSpace=wrap;html=1;" vertex="1" parent="1">
          <mxGeometry x="480" y="220" width="120" height="60" as="geometry" />
        </mxCell>
        <mxCell id="ETCH5vV9gQc0kuzcNDE6-62" value="" style="endArrow=none;html=1;rounded=0;exitX=0.5;exitY=0.5;exitDx=0;exitDy=0;exitPerimeter=0;" edge="1" parent="1" source="ETCH5vV9gQc0kuzcNDE6-1" target="ETCH5vV9gQc0kuzcNDE6-60">
          <mxGeometry width="50" height="50" relative="1" as="geometry">
            <mxPoint x="110" y="301" as="sourcePoint" />
            <mxPoint x="195" y="250" as="targetPoint" />
          </mxGeometry>
        </mxCell>
        <mxCell id="ETCH5vV9gQc0kuzcNDE6-63" value="" style="endArrow=none;html=1;rounded=0;" edge="1" parent="1" source="ETCH5vV9gQc0kuzcNDE6-2" target="ETCH5vV9gQc0kuzcNDE6-61">
          <mxGeometry width="50" height="50" relative="1" as="geometry">
            <mxPoint x="120" y="311" as="sourcePoint" />
            <mxPoint x="205" y="260" as="targetPoint" />
          </mxGeometry>
        </mxCell>
        <mxCell id="ETCH5vV9gQc0kuzcNDE6-64" value="создать логин и пароль" style="rounded=1;whiteSpace=wrap;html=1;" vertex="1" parent="1">
          <mxGeometry x="130" y="130" width="110" height="60" as="geometry" />
        </mxCell>
        <mxCell id="ETCH5vV9gQc0kuzcNDE6-65" value="создать логин и пароль" style="rounded=1;whiteSpace=wrap;html=1;" vertex="1" parent="1">
          <mxGeometry x="690" y="200" width="110" height="60" as="geometry" />
        </mxCell>
        <mxCell id="ETCH5vV9gQc0kuzcNDE6-66" value="заполнить профиль" style="rounded=1;whiteSpace=wrap;html=1;" vertex="1" parent="1">
          <mxGeometry x="350" y="120" width="110" height="60" as="geometry" />
        </mxCell>
        <mxCell id="ETCH5vV9gQc0kuzcNDE6-67" value="заполнить профиль" style="rounded=1;whiteSpace=wrap;html=1;" vertex="1" parent="1">
          <mxGeometry x="590" y="120" width="110" height="60" as="geometry" />
        </mxCell>
        <mxCell id="ETCH5vV9gQc0kuzcNDE6-68" value="Внести информацию об индивидуальных достижениях" style="rounded=1;whiteSpace=wrap;html=1;" vertex="1" parent="1">
          <mxGeometry x="40" y="60" width="110" height="60" as="geometry" />
        </mxCell>
        <mxCell id="ETCH5vV9gQc0kuzcNDE6-70" value="" style="endArrow=none;html=1;rounded=0;" edge="1" parent="1" source="ETCH5vV9gQc0kuzcNDE6-1" target="ETCH5vV9gQc0kuzcNDE6-64">
          <mxGeometry width="50" height="50" relative="1" as="geometry">
            <mxPoint x="95" y="310" as="sourcePoint" />
            <mxPoint x="324" y="270" as="targetPoint" />
          </mxGeometry>
        </mxCell>
        <mxCell id="ETCH5vV9gQc0kuzcNDE6-71" value="" style="endArrow=none;html=1;rounded=0;" edge="1" parent="1" source="ETCH5vV9gQc0kuzcNDE6-1" target="ETCH5vV9gQc0kuzcNDE6-66">
          <mxGeometry width="50" height="50" relative="1" as="geometry">
            <mxPoint x="110" y="297" as="sourcePoint" />
            <mxPoint x="234" y="190" as="targetPoint" />
          </mxGeometry>
        </mxCell>
        <mxCell id="ETCH5vV9gQc0kuzcNDE6-73" value="заполнить контакты" style="rounded=1;whiteSpace=wrap;html=1;" vertex="1" parent="1">
          <mxGeometry x="170" y="20" width="110" height="60" as="geometry" />
        </mxCell>
        <mxCell id="ETCH5vV9gQc0kuzcNDE6-74" value="Указать своё имя" style="rounded=1;whiteSpace=wrap;html=1;" vertex="1" parent="1">
          <mxGeometry x="304" y="10" width="110" height="60" as="geometry" />
        </mxCell>
        <mxCell id="ETCH5vV9gQc0kuzcNDE6-75" value="Внести физические данные (пол, возраст, рост, вес)" style="rounded=1;whiteSpace=wrap;html=1;" vertex="1" parent="1">
          <mxGeometry x="440" y="10" width="110" height="60" as="geometry" />
        </mxCell>
        <mxCell id="ETCH5vV9gQc0kuzcNDE6-76" value="заполнить контакты" style="rounded=1;whiteSpace=wrap;html=1;" vertex="1" parent="1">
          <mxGeometry x="620" y="20" width="110" height="60" as="geometry" />
        </mxCell>
        <mxCell id="ETCH5vV9gQc0kuzcNDE6-77" value="Указать своё имя" style="rounded=1;whiteSpace=wrap;html=1;" vertex="1" parent="1">
          <mxGeometry x="760" y="40" width="110" height="60" as="geometry" />
        </mxCell>
        <mxCell id="ETCH5vV9gQc0kuzcNDE6-78" value="Внести физические данные (пол, возраст, рост, вес)" style="rounded=1;whiteSpace=wrap;html=1;" vertex="1" parent="1">
          <mxGeometry x="850" y="120" width="110" height="60" as="geometry" />
        </mxCell>
        <mxCell id="ETCH5vV9gQc0kuzcNDE6-83" value="" style="endArrow=none;html=1;rounded=0;endFill=0;startArrow=classic;startFill=1;dashed=1;dashPattern=8 8;" edge="1" parent="1" source="ETCH5vV9gQc0kuzcNDE6-64" target="ETCH5vV9gQc0kuzcNDE6-60">
          <mxGeometry width="50" height="50" relative="1" as="geometry">
            <mxPoint x="-217" y="120" as="sourcePoint" />
            <mxPoint x="270" y="390" as="targetPoint" />
          </mxGeometry>
        </mxCell>
        <mxCell id="ETCH5vV9gQc0kuzcNDE6-84" value="include" style="edgeLabel;html=1;align=center;verticalAlign=middle;resizable=0;points=[];" vertex="1" connectable="0" parent="ETCH5vV9gQc0kuzcNDE6-83">
          <mxGeometry x="0.0883" relative="1" as="geometry">
            <mxPoint as="offset" />
          </mxGeometry>
        </mxCell>
        <mxCell id="ETCH5vV9gQc0kuzcNDE6-86" value="" style="endArrow=none;html=1;rounded=0;endFill=0;startArrow=classic;startFill=1;dashed=1;dashPattern=8 8;" edge="1" parent="1" source="ETCH5vV9gQc0kuzcNDE6-66" target="ETCH5vV9gQc0kuzcNDE6-60">
          <mxGeometry width="50" height="50" relative="1" as="geometry">
            <mxPoint x="250" y="199" as="sourcePoint" />
            <mxPoint x="326" y="240" as="targetPoint" />
          </mxGeometry>
        </mxCell>
        <mxCell id="ETCH5vV9gQc0kuzcNDE6-87" value="include" style="edgeLabel;html=1;align=center;verticalAlign=middle;resizable=0;points=[];" vertex="1" connectable="0" parent="ETCH5vV9gQc0kuzcNDE6-86">
          <mxGeometry x="0.0883" relative="1" as="geometry">
            <mxPoint as="offset" />
          </mxGeometry>
        </mxCell>
        <mxCell id="ETCH5vV9gQc0kuzcNDE6-89" value="" style="endArrow=none;html=1;rounded=0;endFill=0;startArrow=classic;startFill=1;dashed=1;dashPattern=8 8;" edge="1" parent="1" source="ETCH5vV9gQc0kuzcNDE6-67" target="ETCH5vV9gQc0kuzcNDE6-61">
          <mxGeometry width="50" height="50" relative="1" as="geometry">
            <mxPoint x="250" y="199" as="sourcePoint" />
            <mxPoint x="326" y="240" as="targetPoint" />
          </mxGeometry>
        </mxCell>
        <mxCell id="ETCH5vV9gQc0kuzcNDE6-90" value="include" style="edgeLabel;html=1;align=center;verticalAlign=middle;resizable=0;points=[];" vertex="1" connectable="0" parent="ETCH5vV9gQc0kuzcNDE6-89">
          <mxGeometry x="0.0883" relative="1" as="geometry">
            <mxPoint as="offset" />
          </mxGeometry>
        </mxCell>
        <mxCell id="ETCH5vV9gQc0kuzcNDE6-91" value="" style="endArrow=none;html=1;rounded=0;endFill=0;startArrow=classic;startFill=1;dashed=1;dashPattern=8 8;" edge="1" parent="1" source="ETCH5vV9gQc0kuzcNDE6-65" target="ETCH5vV9gQc0kuzcNDE6-61">
          <mxGeometry width="50" height="50" relative="1" as="geometry">
            <mxPoint x="591" y="170" as="sourcePoint" />
            <mxPoint x="564" y="230" as="targetPoint" />
          </mxGeometry>
        </mxCell>
        <mxCell id="ETCH5vV9gQc0kuzcNDE6-92" value="include" style="edgeLabel;html=1;align=center;verticalAlign=middle;resizable=0;points=[];" vertex="1" connectable="0" parent="ETCH5vV9gQc0kuzcNDE6-91">
          <mxGeometry x="0.0883" relative="1" as="geometry">
            <mxPoint as="offset" />
          </mxGeometry>
        </mxCell>
        <mxCell id="ETCH5vV9gQc0kuzcNDE6-93" value="" style="endArrow=none;html=1;rounded=0;startArrow=classic;startFill=1;endFill=0;dashed=1;" edge="1" parent="1" source="ETCH5vV9gQc0kuzcNDE6-66" target="ETCH5vV9gQc0kuzcNDE6-68">
          <mxGeometry width="50" height="50" relative="1" as="geometry">
            <mxPoint x="-46" y="280" as="sourcePoint" />
            <mxPoint x="40" y="170" as="targetPoint" />
          </mxGeometry>
        </mxCell>
        <mxCell id="ETCH5vV9gQc0kuzcNDE6-94" value="extend" style="edgeLabel;html=1;align=center;verticalAlign=middle;resizable=0;points=[];" vertex="1" connectable="0" parent="ETCH5vV9gQc0kuzcNDE6-93">
          <mxGeometry x="-0.0549" relative="1" as="geometry">
            <mxPoint as="offset" />
          </mxGeometry>
        </mxCell>
        <mxCell id="ETCH5vV9gQc0kuzcNDE6-95" value="" style="endArrow=none;html=1;rounded=0;startArrow=classic;startFill=1;endFill=0;dashed=1;" edge="1" parent="1" source="ETCH5vV9gQc0kuzcNDE6-66" target="ETCH5vV9gQc0kuzcNDE6-73">
          <mxGeometry width="50" height="50" relative="1" as="geometry">
            <mxPoint x="360" y="149" as="sourcePoint" />
            <mxPoint x="160" y="111" as="targetPoint" />
          </mxGeometry>
        </mxCell>
        <mxCell id="ETCH5vV9gQc0kuzcNDE6-96" value="extend" style="edgeLabel;html=1;align=center;verticalAlign=middle;resizable=0;points=[];" vertex="1" connectable="0" parent="ETCH5vV9gQc0kuzcNDE6-95">
          <mxGeometry x="-0.0549" relative="1" as="geometry">
            <mxPoint as="offset" />
          </mxGeometry>
        </mxCell>
        <mxCell id="ETCH5vV9gQc0kuzcNDE6-97" value="" style="endArrow=classic;html=1;rounded=0;startArrow=none;startFill=0;endFill=1;dashed=1;" edge="1" parent="1" source="ETCH5vV9gQc0kuzcNDE6-76" target="ETCH5vV9gQc0kuzcNDE6-67">
          <mxGeometry width="50" height="50" relative="1" as="geometry">
            <mxPoint x="360" y="149" as="sourcePoint" />
            <mxPoint x="160" y="111" as="targetPoint" />
          </mxGeometry>
        </mxCell>
        <mxCell id="ETCH5vV9gQc0kuzcNDE6-98" value="extend" style="edgeLabel;html=1;align=center;verticalAlign=middle;resizable=0;points=[];" vertex="1" connectable="0" parent="ETCH5vV9gQc0kuzcNDE6-97">
          <mxGeometry x="-0.0549" relative="1" as="geometry">
            <mxPoint as="offset" />
          </mxGeometry>
        </mxCell>
        <mxCell id="ETCH5vV9gQc0kuzcNDE6-101" value="" style="endArrow=none;html=1;rounded=0;endFill=0;startArrow=classic;startFill=1;dashed=1;dashPattern=8 8;" edge="1" parent="1" source="ETCH5vV9gQc0kuzcNDE6-74" target="ETCH5vV9gQc0kuzcNDE6-66">
          <mxGeometry width="50" height="50" relative="1" as="geometry">
            <mxPoint x="700" y="245" as="sourcePoint" />
            <mxPoint x="610" y="254" as="targetPoint" />
          </mxGeometry>
        </mxCell>
        <mxCell id="ETCH5vV9gQc0kuzcNDE6-102" value="include" style="edgeLabel;html=1;align=center;verticalAlign=middle;resizable=0;points=[];" vertex="1" connectable="0" parent="ETCH5vV9gQc0kuzcNDE6-101">
          <mxGeometry x="0.0883" relative="1" as="geometry">
            <mxPoint as="offset" />
          </mxGeometry>
        </mxCell>
        <mxCell id="ETCH5vV9gQc0kuzcNDE6-103" value="" style="endArrow=none;html=1;rounded=0;endFill=0;startArrow=classic;startFill=1;dashed=1;dashPattern=8 8;" edge="1" parent="1" source="ETCH5vV9gQc0kuzcNDE6-75" target="ETCH5vV9gQc0kuzcNDE6-66">
          <mxGeometry width="50" height="50" relative="1" as="geometry">
            <mxPoint x="382" y="80" as="sourcePoint" />
            <mxPoint x="402" y="130" as="targetPoint" />
          </mxGeometry>
        </mxCell>
        <mxCell id="ETCH5vV9gQc0kuzcNDE6-104" value="include" style="edgeLabel;html=1;align=center;verticalAlign=middle;resizable=0;points=[];" vertex="1" connectable="0" parent="ETCH5vV9gQc0kuzcNDE6-103">
          <mxGeometry x="0.0883" relative="1" as="geometry">
            <mxPoint as="offset" />
          </mxGeometry>
        </mxCell>
        <mxCell id="ETCH5vV9gQc0kuzcNDE6-105" value="" style="endArrow=none;html=1;rounded=0;endFill=0;startArrow=classic;startFill=1;dashed=1;dashPattern=8 8;" edge="1" parent="1" source="ETCH5vV9gQc0kuzcNDE6-77" target="ETCH5vV9gQc0kuzcNDE6-67">
          <mxGeometry width="50" height="50" relative="1" as="geometry">
            <mxPoint x="480" y="80" as="sourcePoint" />
            <mxPoint x="440" y="130" as="targetPoint" />
          </mxGeometry>
        </mxCell>
        <mxCell id="ETCH5vV9gQc0kuzcNDE6-106" value="include" style="edgeLabel;html=1;align=center;verticalAlign=middle;resizable=0;points=[];" vertex="1" connectable="0" parent="ETCH5vV9gQc0kuzcNDE6-105">
          <mxGeometry x="0.0883" relative="1" as="geometry">
            <mxPoint as="offset" />
          </mxGeometry>
        </mxCell>
        <mxCell id="ETCH5vV9gQc0kuzcNDE6-107" value="" style="endArrow=none;html=1;rounded=0;endFill=0;startArrow=classic;startFill=1;dashed=1;dashPattern=8 8;" edge="1" parent="1" source="ETCH5vV9gQc0kuzcNDE6-78" target="ETCH5vV9gQc0kuzcNDE6-67">
          <mxGeometry width="50" height="50" relative="1" as="geometry">
            <mxPoint x="490" y="90" as="sourcePoint" />
            <mxPoint x="450" y="140" as="targetPoint" />
          </mxGeometry>
        </mxCell>
        <mxCell id="ETCH5vV9gQc0kuzcNDE6-108" value="include" style="edgeLabel;html=1;align=center;verticalAlign=middle;resizable=0;points=[];" vertex="1" connectable="0" parent="ETCH5vV9gQc0kuzcNDE6-107">
          <mxGeometry x="0.0883" relative="1" as="geometry">
            <mxPoint as="offset" />
          </mxGeometry>
        </mxCell>
        <mxCell id="ETCH5vV9gQc0kuzcNDE6-109" value="" style="endArrow=none;html=1;rounded=0;" edge="1" parent="1" source="ETCH5vV9gQc0kuzcNDE6-48" target="ETCH5vV9gQc0kuzcNDE6-2">
          <mxGeometry width="50" height="50" relative="1" as="geometry">
            <mxPoint x="590" y="324" as="sourcePoint" />
            <mxPoint x="690" y="312" as="targetPoint" />
          </mxGeometry>
        </mxCell>
        <mxCell id="ETCH5vV9gQc0kuzcNDE6-110" value="" style="endArrow=none;html=1;rounded=0;" edge="1" parent="1" source="ETCH5vV9gQc0kuzcNDE6-1" target="ETCH5vV9gQc0kuzcNDE6-48">
          <mxGeometry width="50" height="50" relative="1" as="geometry">
            <mxPoint x="510" y="380" as="sourcePoint" />
            <mxPoint x="690" y="315" as="targetPoint" />
          </mxGeometry>
        </mxCell>
      </root>
    </mxGraphModel>
  </diagram>
</mxfile>
